<svg width="56" height="56" viewBox="0 0 56 56" fill="none" xmlns="http://www.w3.org/2000/svg">
<rect width="56" height="56" rx="28" fill="white"/>
<path d="M38.6668 40V37.3333C38.6668 35.9188 38.1049 34.5623 37.1047 33.5621C36.1045 32.5619 34.748 32 33.3335 32H22.6668C21.2523 32 19.8958 32.5619 18.8956 33.5621C17.8954 34.5623 17.3335 35.9188 17.3335 37.3333V40M33.3335 21.3333C33.3335 24.2789 30.9457 26.6667 28.0002 26.6667C25.0546 26.6667 22.6668 24.2789 22.6668 21.3333C22.6668 18.3878 25.0546 16 28.0002 16C30.9457 16 33.3335 18.3878 33.3335 21.3333Z" stroke="#3B3B3B" stroke-width="2.66667" stroke-linecap="round" stroke-linejoin="round"/>
</svg>
