<svg width="14" height="15" viewBox="0 0 14 15" fill="none" xmlns="http://www.w3.org/2000/svg">
<path d="M1 3.49999H2.33333M2.33333 3.49999H13M2.33333 3.49999V12.8333C2.33333 13.187 2.47381 13.5261 2.72386 13.7761C2.97391 14.0262 3.31304 14.1667 3.66667 14.1667H10.3333C10.687 14.1667 11.0261 14.0262 11.2761 13.7761C11.5262 13.5261 11.6667 13.187 11.6667 12.8333V3.49999M4.33333 3.49999V2.16666C4.33333 1.81304 4.47381 1.4739 4.72386 1.22385C4.97391 0.973804 5.31304 0.833328 5.66667 0.833328H8.33333C8.68696 0.833328 9.02609 0.973804 9.27614 1.22385C9.52619 1.4739 9.66667 1.81304 9.66667 2.16666V3.49999" stroke="#BABABA" stroke-width="1.5" stroke-linecap="round" stroke-linejoin="round"/>
</svg>
